<?xml version="1.0" encoding="utf-8"?>
<!-- Generator: Adobe Illustrator 14.0.0, SVG Export Plug-In . SVG Version: 6.00 Build 43363)  -->
<!DOCTYPE svg PUBLIC "-//W3C//DTD SVG 1.1//EN" "http://www.w3.org/Graphics/SVG/1.1/DTD/svg11.dtd">
<svg version="1.1" id="Layer_1" xmlns="http://www.w3.org/2000/svg" xmlns:xlink="http://www.w3.org/1999/xlink" x="0px" y="0px"
	 width="773px" height="549px" viewBox="0 0 773 549" enable-background="new 0 0 773 549" xml:space="preserve">
<path fill="#E6E6E6" d="M745.253,514.536c0,6.627-5.372,12-12,12H30.775c-6.627,0-12-5.373-12-12V34.456c0-6.627,5.373-12,12-12
	h702.478c6.628,0,12,5.373,12,12V514.536z"/>
<circle fill="#CCCCCC" stroke="#B3B3B3" stroke-width="3" cx="48.878" cy="274" r="15.136"/>
<g>
	<rect x="70.476" y="33.496" fill="#F2F2F2" width="633.28" height="482"/>
	<g>
		<path fill="#CCCCCC" d="M703.879,514.618c-24.129,0-48.258,0-72.386,0c-56.628,0-113.256,0-169.884,0
			c-65.492,0-130.983,0-196.475,0c-50.719,0-101.438,0-152.157,0c-14.126,0-28.252,0-42.379,0c0.382,0.257,0.764,0.514,1.146,0.771
			c0-30.081,0-60.163,0-90.244c0-63.037,0-126.073,0-189.11c0-55.181,0-110.361,0-165.542c0-12.368,0-24.736,0-37.104
			c-0.464,0.329-0.928,0.657-1.392,0.985c24.128,0,48.257,0,72.385,0c56.628,0,113.256,0,169.884,0c65.491,0,130.982,0,196.475,0
			c50.719,0,101.438,0,152.157,0c14.126,0,28.252,0,42.378,0c-0.382-0.257-0.764-0.514-1.146-0.77c0,30.081,0,60.163,0,90.244
			c0,63.037,0,126.073,0,189.11c0,55.181,0,110.36,0,165.541c0,12.368,0,24.736,0,37.104c0,1.273,2.539,0.856,2.539-0.215
			c0-30.081,0-60.163,0-90.244c0-63.037,0-126.073,0-189.11c0-55.181,0-110.361,0-165.542c0-12.368,0-24.736,0-37.104
			c0-0.649-0.613-0.77-1.146-0.77c-24.129,0-48.258,0-72.386,0c-56.628,0-113.256,0-169.884,0c-65.492,0-130.983,0-196.475,0
			c-50.719,0-101.438,0-152.157,0c-14.126,0-28.252,0-42.379,0c-0.468,0-1.392,0.406-1.392,0.985c0,30.081,0,60.163,0,90.244
			c0,63.037,0,126.073,0,189.11c0,55.181,0,110.36,0,165.541c0,12.368,0,24.736,0,37.104c0,0.649,0.613,0.771,1.146,0.771
			c24.128,0,48.257,0,72.385,0c56.628,0,113.256,0,169.884,0c65.491,0,130.982,0,196.475,0c50.719,0,101.438,0,152.157,0
			c14.126,0,28.252,0,42.378,0C705.037,516.374,705.586,514.618,703.879,514.618z"/>
	</g>
</g>
<path fill="#CCCCCC" d="M730.573,285.47c0,2.025-1.642,3.667-3.666,3.667l0,0c-2.025,0-3.667-1.642-3.667-3.667V262.53
	c0-2.025,1.642-3.667,3.667-3.667l0,0c2.024,0,3.666,1.642,3.666,3.667V285.47z"/>
</svg>
