<?xml version="1.0" encoding="utf-8"?>
<!-- Generator: Adobe Illustrator 14.0.0, SVG Export Plug-In . SVG Version: 6.00 Build 43363)  -->
<!DOCTYPE svg PUBLIC "-//W3C//DTD SVG 1.1//EN" "http://www.w3.org/Graphics/SVG/1.1/DTD/svg11.dtd">
<svg version="1.1" xmlns="http://www.w3.org/2000/svg" xmlns:xlink="http://www.w3.org/1999/xlink" x="0px" y="0px" width="800px"
	 height="600px" viewBox="0 0 800 600" enable-background="new 0 0 800 600" xml:space="preserve">
<g id="browser_x5F_base">
	<path fill="#E6E6E6" stroke="#E6E6E6" d="M790,590L790,590H10l0,0V21.958C10,15.352,15.379,10,22.016,10h755.969
		C784.62,10,790,15.352,790,21.958V590z"/>
	<rect x="17" y="66.333" fill="#F2F2F2" stroke="#B3B3B3" width="766" height="515.334"/>
</g>
<g id="buttons">
	<rect x="691" y="10" fill="#009245" stroke="#E6E6E6" width="24.667" height="13.667"/>
	<rect x="715.667" y="10" fill="#29ABE2" stroke="#E6E6E6" width="24.667" height="13.667"/>
	<rect x="740.334" y="10" fill="#9E005D" stroke="#E6E6E6" width="32.666" height="13.667"/>
	<polygon fill="none" stroke="#B3B3B3" points="22.333,46.708 29.565,53.083 29.565,49.099 35.721,49.099 35.721,46.708 
		35.721,44.318 29.565,44.318 29.565,40.333 	"/>
	<polygon fill="none" stroke="#B3B3B3" points="54.58,46.708 47.348,53.083 47.348,49.099 41.192,49.099 41.192,46.708 
		41.192,44.318 47.348,44.318 47.348,40.333 	"/>
	<g>
		<path fill="#999999" d="M26.142,27.896h-0.955v-6.979h-2.619v-0.861h6.193v0.861h-2.619V27.896z"/>
		<path fill="#999999" d="M30.841,23.092h0.018c0.102-0.129,0.215-0.249,0.34-0.36s0.264-0.207,0.416-0.287s0.316-0.144,0.492-0.19
			s0.365-0.07,0.568-0.07c0.211,0,0.422,0.028,0.633,0.085s0.406,0.157,0.586,0.302s0.326,0.346,0.439,0.604s0.17,0.59,0.17,0.996
			v3.727h-0.908v-3.58c0-0.449-0.085-0.787-0.255-1.014s-0.448-0.34-0.835-0.34c-0.32,0-0.625,0.087-0.914,0.261
			s-0.539,0.413-0.75,0.718v3.955h-0.908v-8.484h0.908V23.092z"/>
		<path fill="#999999" d="M38.904,27.252c0.301,0,0.575-0.024,0.823-0.073s0.495-0.118,0.741-0.208v0.756
			c-0.199,0.098-0.445,0.175-0.738,0.231s-0.607,0.085-0.943,0.085c-0.398,0-0.772-0.051-1.122-0.152s-0.652-0.266-0.908-0.492
			c-0.256-0.227-0.456-0.522-0.601-0.888c-0.145-0.365-0.217-0.806-0.217-1.321c0-0.508,0.07-0.948,0.21-1.321
			s0.327-0.685,0.561-0.935s0.502-0.438,0.807-0.563c0.304-0.125,0.622-0.188,0.953-0.188c0.312,0,0.603,0.052,0.874,0.155
			c0.271,0.104,0.505,0.267,0.704,0.489s0.355,0.51,0.471,0.861c0.115,0.352,0.172,0.773,0.172,1.266c0,0.047,0,0.087,0,0.12
			s-0.002,0.108-0.006,0.226h-3.844c0,0.355,0.054,0.657,0.161,0.905s0.254,0.449,0.439,0.604s0.403,0.267,0.653,0.337
			S38.615,27.252,38.904,27.252z M38.425,22.963c-0.21,0-0.404,0.041-0.584,0.123s-0.337,0.193-0.472,0.334
			s-0.243,0.306-0.326,0.495s-0.135,0.392-0.154,0.606h2.848c0-0.219-0.029-0.423-0.086-0.612c-0.058-0.189-0.142-0.354-0.252-0.495
			s-0.247-0.251-0.409-0.331S38.638,22.963,38.425,22.963z"/>
		<path fill="#999999" d="M44.751,27.896v-7.84h0.955v7.84H44.751z"/>
		<path fill="#999999" d="M48.46,23.104h0.018c0.102-0.129,0.214-0.249,0.337-0.36s0.261-0.209,0.413-0.293s0.319-0.149,0.501-0.196
			s0.38-0.07,0.595-0.07c0.254,0,0.492,0.035,0.715,0.105s0.416,0.184,0.58,0.34s0.294,0.36,0.39,0.612s0.144,0.562,0.144,0.929
			v3.727h-0.908v-3.58c0-0.48-0.093-0.826-0.278-1.037s-0.456-0.316-0.812-0.316c-0.313,0-0.615,0.087-0.908,0.261
			s-0.545,0.413-0.756,0.718v3.955h-0.908V22.33h0.703L48.46,23.104z"/>
		<path fill="#999999" d="M56.845,27.908c-0.078,0.031-0.197,0.061-0.357,0.088s-0.352,0.043-0.574,0.047
			c-0.293,0-0.547-0.036-0.762-0.108s-0.394-0.176-0.536-0.311s-0.249-0.298-0.319-0.489s-0.105-0.404-0.105-0.639v-3.387h-1.072
			V22.33h1.072v-1.523h0.908v1.523h1.664v0.779h-1.664v3.246c0,0.129,0.019,0.248,0.056,0.357s0.096,0.204,0.176,0.284
			s0.183,0.143,0.308,0.188s0.275,0.067,0.451,0.067c0.121,0,0.249-0.01,0.384-0.029s0.259-0.045,0.372-0.076V27.908z"/>
		<path fill="#999999" d="M60.718,27.252c0.301,0,0.575-0.024,0.823-0.073s0.495-0.118,0.741-0.208v0.756
			c-0.199,0.098-0.445,0.175-0.738,0.231s-0.607,0.085-0.943,0.085c-0.398,0-0.772-0.051-1.122-0.152s-0.652-0.266-0.908-0.492
			c-0.256-0.227-0.456-0.522-0.601-0.888c-0.145-0.365-0.217-0.806-0.217-1.321c0-0.508,0.07-0.948,0.21-1.321
			s0.327-0.685,0.561-0.935s0.502-0.438,0.807-0.563c0.304-0.125,0.622-0.188,0.953-0.188c0.312,0,0.603,0.052,0.874,0.155
			c0.271,0.104,0.505,0.267,0.704,0.489s0.355,0.51,0.471,0.861c0.115,0.352,0.172,0.773,0.172,1.266c0,0.047,0,0.087,0,0.12
			s-0.002,0.108-0.006,0.226h-3.844c0,0.355,0.054,0.657,0.161,0.905s0.254,0.449,0.439,0.604s0.403,0.267,0.653,0.337
			S60.429,27.252,60.718,27.252z M60.239,22.963c-0.21,0-0.404,0.041-0.584,0.123s-0.337,0.193-0.472,0.334
			s-0.243,0.306-0.326,0.495s-0.135,0.392-0.154,0.606h2.848c0-0.219-0.029-0.423-0.086-0.612c-0.058-0.189-0.142-0.354-0.252-0.495
			s-0.247-0.251-0.409-0.331S60.453,22.963,60.239,22.963z"/>
		<path fill="#999999" d="M67.099,23.068h-0.07c-0.215,0-0.426,0.02-0.633,0.059s-0.401,0.099-0.583,0.179s-0.346,0.179-0.492,0.296
			s-0.269,0.256-0.366,0.416v3.879h-0.908V22.33h0.703l0.176,0.885h0.018c0.09-0.145,0.2-0.279,0.331-0.404s0.278-0.234,0.442-0.328
			s0.344-0.167,0.539-0.22s0.4-0.079,0.615-0.079c0.039,0,0.079,0.001,0.12,0.003s0.077,0.005,0.108,0.009V23.068z"/>
		<path fill="#999999" d="M68.945,23.104h0.018c0.102-0.129,0.214-0.249,0.337-0.36s0.261-0.209,0.413-0.293
			s0.319-0.149,0.501-0.196s0.38-0.07,0.595-0.07c0.254,0,0.492,0.035,0.715,0.105s0.416,0.184,0.58,0.34s0.294,0.36,0.39,0.612
			s0.144,0.562,0.144,0.929v3.727h-0.908v-3.58c0-0.48-0.093-0.826-0.278-1.037s-0.456-0.316-0.812-0.316
			c-0.313,0-0.615,0.087-0.908,0.261s-0.545,0.413-0.756,0.718v3.955h-0.908V22.33h0.703L68.945,23.104z"/>
		<path fill="#999999" d="M77.037,27.252c0.301,0,0.575-0.024,0.823-0.073s0.495-0.118,0.741-0.208v0.756
			c-0.199,0.098-0.445,0.175-0.738,0.231s-0.607,0.085-0.943,0.085c-0.398,0-0.772-0.051-1.122-0.152s-0.652-0.266-0.908-0.492
			c-0.256-0.227-0.456-0.522-0.601-0.888c-0.145-0.365-0.217-0.806-0.217-1.321c0-0.508,0.07-0.948,0.21-1.321
			s0.327-0.685,0.561-0.935s0.502-0.438,0.807-0.563c0.304-0.125,0.622-0.188,0.953-0.188c0.312,0,0.603,0.052,0.874,0.155
			c0.271,0.104,0.505,0.267,0.704,0.489s0.355,0.51,0.471,0.861c0.115,0.352,0.172,0.773,0.172,1.266c0,0.047,0,0.087,0,0.12
			s-0.002,0.108-0.006,0.226h-3.844c0,0.355,0.054,0.657,0.161,0.905s0.254,0.449,0.439,0.604s0.403,0.267,0.653,0.337
			S76.748,27.252,77.037,27.252z M76.558,22.963c-0.21,0-0.404,0.041-0.584,0.123s-0.337,0.193-0.472,0.334
			s-0.243,0.306-0.326,0.495s-0.135,0.392-0.154,0.606h2.848c0-0.219-0.029-0.423-0.086-0.612c-0.058-0.189-0.142-0.354-0.252-0.495
			s-0.247-0.251-0.409-0.331S76.771,22.963,76.558,22.963z"/>
		<path fill="#999999" d="M83.3,27.908c-0.078,0.031-0.197,0.061-0.357,0.088s-0.352,0.043-0.574,0.047
			c-0.293,0-0.547-0.036-0.762-0.108s-0.394-0.176-0.536-0.311s-0.249-0.298-0.319-0.489s-0.105-0.404-0.105-0.639v-3.387h-1.072
			V22.33h1.072v-1.523h0.908v1.523h1.664v0.779h-1.664v3.246c0,0.129,0.019,0.248,0.056,0.357s0.096,0.204,0.176,0.284
			s0.183,0.143,0.308,0.188s0.275,0.067,0.451,0.067c0.121,0,0.249-0.01,0.384-0.029s0.259-0.045,0.372-0.076V27.908z"/>
	</g>
</g>
<g id="address_x5F_bar">
	<rect x="70" y="37.5" fill="#F2F2F2" stroke="#B3B3B3" width="713" height="19.75"/>
	<rect x="-229" y="-144" fill="#F2F2F2" stroke="#B3B3B3" width="3" height="2"/>
</g>
</svg>
